<?xml version="1.0" standalone="no"?>
<!DOCTYPE svg PUBLIC "-//W3C//DTD SVG 20010904//EN"
 "http://www.w3.org/TR/2001/REC-SVG-20010904/DTD/svg10.dtd">
<svg version="1.0" xmlns="http://www.w3.org/2000/svg"
 width="132.000000pt" height="132.000000pt" viewBox="0 0 132.000000 132.000000"
 preserveAspectRatio="xMidYMid meet">
<metadata>
Created by potrace 1.14, written by Peter Selinger 2001-2017
</metadata>
<g transform="translate(0.000000,132.000000) scale(0.100000,-0.100000)"
fill="#000000" stroke="none">
<path d="M0 660 l0 -660 660 0 c580 0 660 2 660 15 0 13 -32 15 -225 15 -219
0 -225 1 -225 20 0 11 4 28 9 38 5 9 12 25 15 35 3 10 14 17 23 16 34 -3 39 1
39 28 -1 24 3 28 32 31 29 3 31 6 26 28 -6 24 4 30 44 25 7 -1 12 9 12 23 0
19 6 25 28 28 21 2 28 9 30 31 3 21 9 27 28 27 19 0 26 6 30 29 4 21 13 31 28
33 14 2 22 11 24 30 3 21 9 27 30 30 25 3 27 7 30 56 2 30 7 50 13 47 5 -4 9
134 9 364 l0 371 -660 0 -660 0 0 -660z m766 395 c4 -9 19 -15 36 -15 22 0 28
-4 26 -17 -2 -14 5 -19 30 -21 25 -3 32 -8 32 -25 0 -17 3 -19 9 -8 7 11 10 9
16 -8 3 -12 6 -34 5 -49 -3 -44 -1 -52 15 -52 8 0 15 -4 15 -10 0 -5 -8 -7
-17 -4 -17 5 -17 5 0 -6 19 -12 23 -40 6 -40 -5 0 -7 5 -3 11 5 8 1 8 -14 0
-31 -16 -112 -14 -112 3 0 7 -11 16 -24 18 -19 4 -23 1 -19 -16 4 -17 3 -18
-6 -6 -6 9 -11 10 -11 3 0 -13 -18 -12 -39 1 -9 6 -12 5 -8 0 3 -6 2 -16 -3
-24 -5 -9 -4 -20 3 -30 9 -13 9 -13 -3 -2 -8 7 -15 20 -15 30 0 11 -7 16 -19
14 -10 -2 -16 1 -13 5 3 5 -33 5 -81 0 -65 -7 -87 -6 -90 3 -3 7 -13 -1 -23
-17 -11 -16 -19 -22 -19 -13 0 9 -3 11 -8 5 -4 -5 -14 -10 -22 -10 -8 0 -14
-8 -14 -17 1 -10 -2 -15 -7 -12 -15 9 -10 22 16 49 14 14 21 25 15 25 -6 0
-10 34 -10 90 0 88 3 96 33 91 5 -1 6 8 2 19 -6 19 -2 20 109 20 64 0 115 3
115 8 -3 19 4 22 46 22 31 0 47 -5 51 -15z m-56 -325 c0 -5 6 -9 13 -7 7 1 13
-10 15 -27 3 -20 0 -26 -9 -21 -7 5 -10 4 -6 -3 4 -5 15 -8 25 -5 13 3 19 -1
19 -12 0 -10 -6 -15 -17 -12 -13 3 -16 -1 -12 -20 5 -28 19 -38 35 -25 7 5 42
10 79 10 69 0 93 7 83 23 -4 5 5 8 19 7 23 -2 24 -5 23 -69 0 -42 -5 -67 -11
-66 -6 1 -12 -13 -14 -30 -3 -27 -7 -32 -25 -29 -11 1 -23 8 -25 14 -2 7 -11
12 -20 13 -12 0 -13 2 -4 6 10 4 9 8 -5 18 -26 19 -52 2 -46 -30 3 -14 1 -25
-4 -25 -5 0 -10 19 -12 42 -1 23 -4 44 -6 46 -3 3 -128 5 -198 3 -16 -1 -26
-5 -23 -10 7 -11 -17 -21 -51 -21 -18 0 -24 -4 -19 -15 3 -9 0 -15 -9 -15 -8
0 -15 -4 -15 -10 0 -13 -37 -50 -50 -50 -5 0 -10 -7 -10 -15 0 -8 -5 -15 -11
-15 -6 0 -9 7 -5 15 6 15 -3 19 -41 15 -21 -1 -23 3 -23 41 0 28 -6 46 -17 55
-16 12 -15 13 12 14 19 0 25 3 17 8 -16 11 -16 202 1 202 6 0 8 -3 4 -6 -3 -3
-2 -17 4 -31 6 -17 6 -22 -2 -17 -7 4 -10 -1 -7 -12 2 -13 13 -20 36 -22 18
-2 30 -7 27 -12 -9 -15 16 -23 76 -24 48 -1 60 2 65 16 3 11 15 18 30 18 15 0
24 6 24 16 0 11 6 15 20 11 15 -4 20 0 20 14 0 10 7 19 15 19 8 0 15 9 15 20
0 11 5 20 10 20 6 0 10 -4 10 -10z m60 -115 c0 -8 -4 -15 -8 -15 -5 0 -9 7 -9
15 0 8 4 15 9 15 4 0 8 -7 8 -15z m-180 -126 c0 -5 5 -7 10 -4 6 3 10 -3 10
-14 0 -11 -4 -23 -10 -26 -5 -3 -10 0 -10 7 0 9 -3 9 -10 -2 -7 -11 -10 -7
-10 18 0 17 5 32 10 32 6 0 10 -5 10 -11z m164 -146 c-18 -14 -18 -14 1 -11
12 2 19 -2 17 -9 -1 -7 2 -13 8 -13 6 0 10 4 10 8 0 5 6 9 13 9 6 0 21 4 31 9
14 5 17 4 12 -4 -4 -7 -2 -12 3 -12 6 0 10 -15 8 -35 -1 -19 -6 -35 -12 -35
-5 0 -3 -5 5 -10 13 -8 12 -10 -2 -10 -10 0 -18 -7 -18 -15 0 -9 -7 -18 -15
-21 -8 -4 -15 -12 -15 -20 0 -8 -7 -14 -15 -14 -8 0 -15 -8 -15 -17 0 -23 -13
-7 -15 18 -1 11 3 18 10 15 6 -2 17 5 24 16 7 11 8 17 2 14 -5 -4 -11 7 -13
26 -3 30 -6 33 -32 30 -16 -2 -32 2 -37 10 -7 10 -9 10 -9 1 0 -7 -11 -13 -25
-13 -18 0 -25 -5 -25 -20 0 -11 7 -23 15 -26 14 -6 14 -8 -1 -18 -9 -7 -17
-24 -17 -39 -2 -24 -19 -35 -18 -12 0 6 -7 14 -16 19 -13 7 -13 10 -2 17 11 7
9 9 -6 10 -11 1 -23 1 -27 0 -8 -1 -12 18 -11 46 1 9 -4 10 -18 2 -15 -8 -19
-6 -19 6 0 10 5 13 13 9 10 -6 10 -4 0 7 -18 19 -17 69 2 69 8 0 14 -6 13 -12
-2 -7 3 -12 10 -11 6 2 12 -3 12 -9 0 -7 7 -2 16 10 9 13 22 21 30 18 8 -3 14
-1 14 5 0 7 -10 9 -25 5 -18 -5 -23 -3 -19 7 4 11 27 14 91 14 76 0 84 -2 67
-14z"/>
<path d="M785 1020 c-3 -5 -1 -10 4 -10 6 0 11 5 11 10 0 6 -2 10 -4 10 -3 0
-8 -4 -11 -10z"/>
<path d="M720 819 c0 -5 5 -7 10 -4 6 3 10 8 10 11 0 2 -4 4 -10 4 -5 0 -10
-5 -10 -11z"/>
<path d="M690 690 c-9 -6 -10 -10 -3 -10 6 0 15 5 18 10 8 12 4 12 -15 0z"/>
<path d="M700 640 c0 -5 5 -10 10 -10 6 0 10 5 10 10 0 6 -4 10 -10 10 -5 0
-10 -4 -10 -10z"/>
<path d="M673 583 c15 -2 37 -2 50 0 12 2 0 4 -28 4 -27 0 -38 -2 -22 -4z"/>
<path d="M735 560 c-7 -12 2 -12 30 0 19 8 19 9 -2 9 -12 1 -25 -3 -28 -9z"/>
<path d="M608 553 c7 -3 16 -2 19 1 4 3 -2 6 -13 5 -11 0 -14 -3 -6 -6z"/>
<path d="M391 444 c0 -11 3 -14 6 -6 3 7 2 16 -1 19 -3 4 -6 -2 -5 -13z"/>
<path d="M540 290 c0 -5 5 -10 11 -10 5 0 7 5 4 10 -3 6 -8 10 -11 10 -2 0 -4
-4 -4 -10z"/>
<path d="M770 291 c0 -6 4 -13 10 -16 6 -3 7 1 4 9 -7 18 -14 21 -14 7z"/>
<path d="M798 293 c6 -2 9 -10 6 -15 -4 -7 -2 -8 5 -4 13 9 5 26 -12 25 -9 0
-8 -2 1 -6z"/>
<path d="M631 184 c0 -11 3 -14 6 -6 3 7 2 16 -1 19 -3 4 -6 -2 -5 -13z"/>
</g>
</svg>
