<?xml version="1.0" encoding="UTF-8" standalone="no"?>
<svg
   height="24"
   viewBox="0 -960 960 960"
   width="24"
   version="1.1"
   id="svg184"
   sodipodi:docname="folder_icon.svg"
   inkscape:version="1.2.1 (9c6d41e4, 2022-07-14)"
   inkscape:export-filename="folder_icon.png"
   inkscape:export-xdpi="1024"
   inkscape:export-ydpi="1024"
   xmlns:inkscape="http://www.inkscape.org/namespaces/inkscape"
   xmlns:sodipodi="http://sodipodi.sourceforge.net/DTD/sodipodi-0.dtd"
   xmlns="http://www.w3.org/2000/svg"
   xmlns:svg="http://www.w3.org/2000/svg">
  <defs
     id="defs188" />
  <sodipodi:namedview
     id="namedview186"
     pagecolor="#ffffff"
     bordercolor="#000000"
     borderopacity="0.25"
     inkscape:showpageshadow="2"
     inkscape:pageopacity="0.0"
     inkscape:pagecheckerboard="0"
     inkscape:deskcolor="#d1d1d1"
     showgrid="false"
     inkscape:zoom="9.8333333"
     inkscape:cx="9.4576271"
     inkscape:cy="12"
     inkscape:window-width="1343"
     inkscape:window-height="456"
     inkscape:window-x="0"
     inkscape:window-y="25"
     inkscape:window-maximized="0"
     inkscape:current-layer="svg184" />
  <path
     d="m 160,-160 c -22,0 -40.83333,-7.83333 -56.5,-23.5 C 87.833333,-199.16667 80,-218 80,-240 v -480 c 0,-22 7.833333,-40.83333 23.5,-56.5 15.66667,-15.66667 34.5,-23.5 56.5,-23.5 h 240 l 80,80 h 320 c 22,0 40.83333,7.83333 56.5,23.5 15.66667,15.66667 23.5,34.5 23.5,56.5 H 447 l -80,-80 H 160 v 480 l 96,-320 h 684 l -103,343 c -5.33333,17.33333 -15.16667,31.16667 -29.5,41.5 -14.33333,10.33333 -30.16667,15.5 -47.5,15.5 z m 0,-480 v -80 z"
     id="path182"
     sodipodi:nodetypes="ssssssccssccccccccsssccc" />
</svg>
